<svg id="svg" version="1.1" xmlns="http://www.w3.org/2000/svg" xmlns:xlink="http://www.w3.org/1999/xlink" width="400" height="400" viewBox="0, 0, 400,400"><g id="svgg"><path id="path0" d="M31.300 0.288 C 30.585 0.377,30.000 0.619,30.000 0.825 C 30.000 1.031,29.460 1.200,28.800 1.200 C 28.140 1.200,27.600 1.380,27.600 1.600 C 27.600 1.820,27.240 2.000,26.800 2.000 C 26.360 2.000,26.000 2.180,26.000 2.400 C 26.000 2.620,25.730 2.800,25.400 2.800 C 25.070 2.800,24.800 2.980,24.800 3.200 C 24.800 3.420,24.480 3.600,24.088 3.600 C 23.697 3.600,23.117 3.960,22.800 4.400 C 22.483 4.840,21.990 5.200,21.704 5.200 C 21.149 5.200,16.000 10.169,16.000 10.704 C 16.000 10.880,15.640 11.283,15.200 11.600 C 14.760 11.917,14.400 12.497,14.400 12.888 C 14.400 13.280,14.220 13.600,14.000 13.600 C 13.780 13.600,13.596 13.825,13.591 14.100 C 13.586 14.375,13.230 15.050,12.800 15.600 C 12.370 16.150,12.014 17.005,12.009 17.500 C 12.004 17.995,11.840 18.400,11.644 18.400 C 11.236 18.400,10.840 20.335,10.540 23.800 C 10.426 25.120,10.168 26.371,9.966 26.580 C 9.474 27.091,9.474 372.909,9.966 373.420 C 10.168 373.629,10.426 374.880,10.540 376.200 C 10.840 379.665,11.236 381.600,11.644 381.600 C 11.840 381.600,12.004 382.005,12.009 382.500 C 12.014 382.995,12.370 383.850,12.800 384.400 C 13.230 384.950,13.586 385.625,13.591 385.900 C 13.596 386.175,13.780 386.400,14.000 386.400 C 14.220 386.400,14.400 386.720,14.400 387.112 C 14.400 387.503,14.760 388.083,15.200 388.400 C 15.640 388.717,16.000 389.120,16.000 389.296 C 16.000 389.831,21.149 394.800,21.704 394.800 C 21.990 394.800,22.483 395.160,22.800 395.600 C 23.117 396.040,23.697 396.400,24.088 396.400 C 24.480 396.400,24.800 396.580,24.800 396.800 C 24.800 397.020,25.070 397.200,25.400 397.200 C 25.730 397.200,26.000 397.380,26.000 397.600 C 26.000 397.820,26.360 398.000,26.800 398.000 C 27.240 398.000,27.600 398.180,27.600 398.400 C 27.600 398.620,28.125 398.800,28.767 398.800 C 29.408 398.800,30.008 399.025,30.100 399.300 C 30.345 400.036,369.655 400.036,369.900 399.300 C 369.992 399.025,370.592 398.800,371.233 398.800 C 371.875 398.800,372.400 398.620,372.400 398.400 C 372.400 398.180,372.760 398.000,373.200 398.000 C 373.640 398.000,374.000 397.820,374.000 397.600 C 374.000 397.380,374.270 397.200,374.600 397.200 C 374.930 397.200,375.200 397.020,375.200 396.800 C 375.200 396.580,375.520 396.400,375.912 396.400 C 376.303 396.400,376.883 396.040,377.200 395.600 C 377.517 395.160,378.010 394.800,378.296 394.800 C 378.851 394.800,384.000 389.831,384.000 389.296 C 384.000 389.120,384.360 388.717,384.800 388.400 C 385.240 388.083,385.600 387.503,385.600 387.112 C 385.600 386.720,385.780 386.400,386.000 386.400 C 386.220 386.400,386.404 386.175,386.409 385.900 C 386.414 385.625,386.770 384.950,387.200 384.400 C 387.630 383.850,387.986 382.995,387.991 382.500 C 387.996 382.005,388.160 381.600,388.356 381.600 C 388.764 381.600,389.160 379.665,389.460 376.200 C 389.574 374.880,389.832 373.629,390.034 373.420 C 390.526 372.909,390.526 27.091,390.034 26.580 C 389.832 26.371,389.574 25.120,389.460 23.800 C 389.160 20.335,388.764 18.400,388.356 18.400 C 388.160 18.400,387.996 17.995,387.991 17.500 C 387.986 17.005,387.630 16.150,387.200 15.600 C 386.770 15.050,386.414 14.375,386.409 14.100 C 386.404 13.825,386.220 13.600,386.000 13.600 C 385.780 13.600,385.600 13.280,385.600 12.888 C 385.600 12.497,385.240 11.917,384.800 11.600 C 384.360 11.283,384.000 10.880,384.000 10.704 C 384.000 10.169,378.851 5.200,378.296 5.200 C 378.010 5.200,377.517 4.840,377.200 4.400 C 376.883 3.960,376.303 3.600,375.912 3.600 C 375.520 3.600,375.200 3.420,375.200 3.200 C 375.200 2.980,374.930 2.800,374.600 2.800 C 374.270 2.800,374.000 2.620,374.000 2.400 C 374.000 2.180,373.640 2.000,373.200 2.000 C 372.760 2.000,372.400 1.820,372.400 1.600 C 372.400 1.380,371.875 1.200,371.233 1.200 C 370.592 1.200,369.992 0.975,369.900 0.700 C 369.741 0.224,35.062 -0.183,31.300 0.288 M208.600 55.600 C 208.740 55.827,210.730 56.000,213.200 56.000 C 215.670 56.000,217.660 56.173,217.800 56.400 C 217.936 56.620,218.844 56.800,219.818 56.800 C 220.792 56.800,222.356 56.976,223.294 57.192 C 224.232 57.407,226.350 57.775,228.000 58.010 C 233.648 58.812,234.000 58.885,234.000 59.242 C 234.000 59.439,234.720 59.600,235.600 59.600 C 236.480 59.600,237.200 59.780,237.200 60.000 C 237.200 60.220,237.920 60.400,238.800 60.400 C 239.680 60.400,240.400 60.580,240.400 60.800 C 240.400 61.020,241.030 61.200,241.800 61.200 C 242.570 61.200,243.200 61.380,243.200 61.600 C 243.200 61.820,243.650 62.000,244.200 62.000 C 244.750 62.000,245.200 62.180,245.200 62.400 C 245.200 62.620,245.650 62.800,246.200 62.800 C 246.750 62.800,247.200 62.980,247.200 63.200 C 247.200 63.420,247.740 63.600,248.400 63.600 C 249.060 63.600,249.600 63.780,249.600 64.000 C 249.600 64.220,250.140 64.400,250.800 64.400 C 251.460 64.400,252.000 64.580,252.000 64.800 C 252.000 65.020,252.349 65.200,252.776 65.200 C 253.203 65.200,253.664 65.380,253.800 65.600 C 253.936 65.820,254.487 66.000,255.024 66.000 C 255.561 66.000,256.000 66.180,256.000 66.400 C 256.000 66.620,256.360 66.800,256.800 66.800 C 257.240 66.800,257.600 66.980,257.600 67.200 C 257.600 67.420,257.960 67.600,258.400 67.600 C 258.840 67.600,259.200 67.780,259.200 68.000 C 259.200 68.220,259.560 68.400,260.000 68.400 C 260.440 68.400,260.800 68.580,260.800 68.800 C 260.800 69.020,261.065 69.200,261.388 69.200 C 261.711 69.200,262.617 69.560,263.400 70.000 C 264.183 70.440,265.089 70.800,265.412 70.800 C 265.735 70.800,266.000 70.980,266.000 71.200 C 266.000 71.420,266.360 71.600,266.800 71.600 C 267.240 71.600,267.600 71.780,267.600 72.000 C 267.600 72.220,267.960 72.400,268.400 72.400 C 268.840 72.400,269.200 72.547,269.200 72.726 C 269.200 72.906,270.280 73.569,271.600 74.200 C 272.920 74.831,274.000 75.494,274.000 75.674 C 274.000 75.853,274.360 76.000,274.800 76.000 C 275.240 76.000,275.600 76.180,275.600 76.400 C 275.600 76.620,275.788 76.800,276.017 76.800 C 276.246 76.800,276.820 77.160,277.292 77.600 C 277.764 78.040,278.387 78.400,278.675 78.400 C 278.964 78.400,279.200 78.580,279.200 78.800 C 279.200 79.020,279.443 79.200,279.741 79.200 C 280.038 79.200,280.846 79.740,281.537 80.400 C 282.228 81.060,282.992 81.600,283.236 81.600 C 283.480 81.600,284.183 82.140,284.800 82.800 C 285.417 83.460,286.137 84.000,286.400 84.000 C 286.663 84.000,287.383 84.540,288.000 85.200 C 288.617 85.860,289.337 86.400,289.600 86.400 C 289.863 86.400,290.556 86.900,291.140 87.511 C 291.723 88.121,293.097 89.336,294.194 90.211 C 295.290 91.085,297.397 93.015,298.874 94.500 C 300.352 95.985,301.756 97.200,301.993 97.200 C 302.231 97.200,302.546 97.515,302.693 97.899 C 302.841 98.283,304.140 99.771,305.581 101.205 C 307.021 102.639,308.915 104.710,309.789 105.806 C 310.664 106.903,311.879 108.277,312.489 108.860 C 313.100 109.444,313.600 110.137,313.600 110.400 C 313.600 110.663,314.140 111.383,314.800 112.000 C 315.460 112.617,316.000 113.337,316.000 113.600 C 316.000 113.863,316.540 114.583,317.200 115.200 C 317.860 115.817,318.400 116.520,318.400 116.764 C 318.400 117.008,318.940 117.772,319.600 118.463 C 320.260 119.154,320.800 119.962,320.800 120.259 C 320.800 120.557,320.980 120.800,321.200 120.800 C 321.420 120.800,321.600 121.036,321.600 121.325 C 321.600 121.613,321.960 122.236,322.400 122.708 C 322.840 123.180,323.200 123.754,323.200 123.983 C 323.200 124.212,323.380 124.400,323.600 124.400 C 323.820 124.400,324.000 124.760,324.000 125.200 C 324.000 125.640,324.147 126.000,324.326 126.000 C 324.506 126.000,325.169 127.080,325.800 128.400 C 326.431 129.720,327.094 130.800,327.274 130.800 C 327.453 130.800,327.600 131.160,327.600 131.600 C 327.600 132.040,327.780 132.400,328.000 132.400 C 328.220 132.400,328.400 132.760,328.400 133.200 C 328.400 133.640,328.580 134.000,328.800 134.000 C 329.020 134.000,329.200 134.265,329.200 134.588 C 329.200 134.911,329.560 135.817,330.000 136.600 C 330.440 137.383,330.800 138.289,330.800 138.612 C 330.800 138.935,330.980 139.200,331.200 139.200 C 331.420 139.200,331.600 139.560,331.600 140.000 C 331.600 140.440,331.780 140.800,332.000 140.800 C 332.220 140.800,332.400 141.160,332.400 141.600 C 332.400 142.040,332.580 142.400,332.800 142.400 C 333.020 142.400,333.200 142.760,333.200 143.200 C 333.200 143.640,333.380 144.000,333.600 144.000 C 333.820 144.000,334.000 144.439,334.000 144.976 C 334.000 145.513,334.180 146.064,334.400 146.200 C 334.620 146.336,334.800 146.797,334.800 147.224 C 334.800 147.651,334.980 148.000,335.200 148.000 C 335.420 148.000,335.600 148.540,335.600 149.200 C 335.600 149.860,335.780 150.400,336.000 150.400 C 336.220 150.400,336.400 150.940,336.400 151.600 C 336.400 152.260,336.580 152.800,336.800 152.800 C 337.020 152.800,337.200 153.250,337.200 153.800 C 337.200 154.350,337.380 154.800,337.600 154.800 C 337.820 154.800,338.000 155.250,338.000 155.800 C 338.000 156.350,338.180 156.800,338.400 156.800 C 338.620 156.800,338.800 157.430,338.800 158.200 C 338.800 158.970,338.980 159.600,339.200 159.600 C 339.420 159.600,339.600 160.320,339.600 161.200 C 339.600 162.080,339.780 162.800,340.000 162.800 C 340.220 162.800,340.400 163.520,340.400 164.400 C 340.400 165.280,340.561 166.000,340.758 166.000 C 341.115 166.000,341.188 166.352,341.990 172.000 C 342.225 173.650,342.593 175.768,342.808 176.706 C 343.024 177.644,343.200 179.208,343.200 180.182 C 343.200 181.156,343.380 182.064,343.600 182.200 C 343.827 182.340,344.000 184.330,344.000 186.800 C 344.000 189.270,344.173 191.260,344.400 191.400 C 344.646 191.552,344.800 194.863,344.800 200.000 C 344.800 205.137,344.646 208.448,344.400 208.600 C 344.173 208.740,344.000 210.730,344.000 213.200 C 344.000 215.670,343.827 217.660,343.600 217.800 C 343.380 217.936,343.200 218.844,343.200 219.818 C 343.200 220.792,343.024 222.356,342.808 223.294 C 342.593 224.232,342.225 226.350,341.990 228.000 C 341.188 233.648,341.115 234.000,340.758 234.000 C 340.561 234.000,340.400 234.720,340.400 235.600 C 340.400 236.480,340.220 237.200,340.000 237.200 C 339.780 237.200,339.600 237.920,339.600 238.800 C 339.600 239.680,339.420 240.400,339.200 240.400 C 338.980 240.400,338.800 241.030,338.800 241.800 C 338.800 242.570,338.620 243.200,338.400 243.200 C 338.180 243.200,338.000 243.650,338.000 244.200 C 338.000 244.750,337.820 245.200,337.600 245.200 C 337.380 245.200,337.200 245.650,337.200 246.200 C 337.200 246.750,337.020 247.200,336.800 247.200 C 336.580 247.200,336.400 247.740,336.400 248.400 C 336.400 249.060,336.220 249.600,336.000 249.600 C 335.780 249.600,335.600 250.140,335.600 250.800 C 335.600 251.460,335.420 252.000,335.200 252.000 C 334.980 252.000,334.800 252.349,334.800 252.776 C 334.800 253.203,334.620 253.664,334.400 253.800 C 334.180 253.936,334.000 254.487,334.000 255.024 C 334.000 255.561,333.820 256.000,333.600 256.000 C 333.380 256.000,333.200 256.360,333.200 256.800 C 333.200 257.240,333.020 257.600,332.800 257.600 C 332.580 257.600,332.400 257.960,332.400 258.400 C 332.400 258.840,332.220 259.200,332.000 259.200 C 331.780 259.200,331.600 259.560,331.600 260.000 C 331.600 260.440,331.420 260.800,331.200 260.800 C 330.980 260.800,330.800 261.065,330.800 261.388 C 330.800 261.711,330.440 262.617,330.000 263.400 C 329.560 264.183,329.200 265.089,329.200 265.412 C 329.200 265.735,329.020 266.000,328.800 266.000 C 328.580 266.000,328.400 266.360,328.400 266.800 C 328.400 267.240,328.220 267.600,328.000 267.600 C 327.780 267.600,327.600 267.960,327.600 268.400 C 327.600 268.840,327.453 269.200,327.274 269.200 C 327.094 269.200,326.431 270.280,325.800 271.600 C 325.169 272.920,324.506 274.000,324.326 274.000 C 324.147 274.000,324.000 274.360,324.000 274.800 C 324.000 275.240,323.820 275.600,323.600 275.600 C 323.380 275.600,323.200 275.788,323.200 276.017 C 323.200 276.246,322.840 276.820,322.400 277.292 C 321.960 277.764,321.600 278.387,321.600 278.675 C 321.600 278.964,321.420 279.200,321.200 279.200 C 320.980 279.200,320.800 279.443,320.800 279.741 C 320.800 280.038,320.260 280.846,319.600 281.537 C 318.940 282.228,318.400 282.992,318.400 283.236 C 318.400 283.480,317.860 284.183,317.200 284.800 C 316.540 285.417,316.000 286.137,316.000 286.400 C 316.000 286.663,315.460 287.383,314.800 288.000 C 314.140 288.617,313.600 289.337,313.600 289.600 C 313.600 289.863,313.100 290.556,312.489 291.140 C 311.879 291.723,310.664 293.097,309.789 294.194 C 308.915 295.290,307.021 297.361,305.581 298.795 C 304.140 300.229,302.841 301.717,302.693 302.101 C 302.546 302.485,302.231 302.800,301.993 302.800 C 301.756 302.800,300.352 304.015,298.874 305.500 C 297.397 306.985,295.290 308.915,294.194 309.789 C 293.097 310.664,291.723 311.879,291.140 312.489 C 290.556 313.100,289.863 313.600,289.600 313.600 C 289.337 313.600,288.617 314.140,288.000 314.800 C 287.383 315.460,286.663 316.000,286.400 316.000 C 286.137 316.000,285.417 316.540,284.800 317.200 C 284.183 317.860,283.480 318.400,283.236 318.400 C 282.992 318.400,282.228 318.940,281.537 319.600 C 280.846 320.260,280.038 320.800,279.741 320.800 C 279.443 320.800,279.200 320.980,279.200 321.200 C 279.200 321.420,278.964 321.600,278.675 321.600 C 278.387 321.600,277.764 321.960,277.292 322.400 C 276.820 322.840,276.246 323.200,276.017 323.200 C 275.788 323.200,275.600 323.380,275.600 323.600 C 275.600 323.820,275.240 324.000,274.800 324.000 C 274.360 324.000,274.000 324.147,274.000 324.326 C 274.000 324.506,272.920 325.169,271.600 325.800 C 270.280 326.431,269.200 327.094,269.200 327.274 C 269.200 327.453,268.840 327.600,268.400 327.600 C 267.960 327.600,267.600 327.780,267.600 328.000 C 267.600 328.220,267.240 328.400,266.800 328.400 C 266.360 328.400,266.000 328.580,266.000 328.800 C 266.000 329.020,265.735 329.200,265.412 329.200 C 265.089 329.200,264.183 329.560,263.400 330.000 C 262.617 330.440,261.711 330.800,261.388 330.800 C 261.065 330.800,260.800 330.980,260.800 331.200 C 260.800 331.420,260.440 331.600,260.000 331.600 C 259.560 331.600,259.200 331.780,259.200 332.000 C 259.200 332.220,258.840 332.400,258.400 332.400 C 257.960 332.400,257.600 332.580,257.600 332.800 C 257.600 333.020,257.240 333.200,256.800 333.200 C 256.360 333.200,256.000 333.380,256.000 333.600 C 256.000 333.820,255.561 334.000,255.024 334.000 C 254.487 334.000,253.936 334.180,253.800 334.400 C 253.664 334.620,253.203 334.800,252.776 334.800 C 252.349 334.800,252.000 334.980,252.000 335.200 C 252.000 335.420,251.460 335.600,250.800 335.600 C 250.140 335.600,249.600 335.780,249.600 336.000 C 249.600 336.220,249.060 336.400,248.400 336.400 C 247.740 336.400,247.200 336.580,247.200 336.800 C 247.200 337.020,246.750 337.200,246.200 337.200 C 245.650 337.200,245.200 337.380,245.200 337.600 C 245.200 337.820,244.750 338.000,244.200 338.000 C 243.650 338.000,243.200 338.180,243.200 338.400 C 243.200 338.620,242.570 338.800,241.800 338.800 C 241.030 338.800,240.400 338.980,240.400 339.200 C 240.400 339.420,239.680 339.600,238.800 339.600 C 237.920 339.600,237.200 339.780,237.200 340.000 C 237.200 340.220,236.480 340.400,235.600 340.400 C 234.720 340.400,234.000 340.561,234.000 340.758 C 234.000 341.115,233.648 341.188,228.000 341.990 C 226.350 342.225,224.232 342.593,223.294 342.808 C 222.356 343.024,220.792 343.200,219.818 343.200 C 218.844 343.200,217.936 343.380,217.800 343.600 C 217.660 343.827,215.670 344.000,213.200 344.000 C 210.730 344.000,208.740 344.173,208.600 344.400 C 208.448 344.646,205.137 344.800,200.000 344.800 C 194.863 344.800,191.552 344.646,191.400 344.400 C 191.260 344.173,189.270 344.000,186.800 344.000 C 184.330 344.000,182.340 343.827,182.200 343.600 C 182.064 343.380,181.156 343.200,180.182 343.200 C 179.208 343.200,177.644 343.024,176.706 342.808 C 175.768 342.593,173.650 342.225,172.000 341.990 C 166.352 341.188,166.000 341.115,166.000 340.758 C 166.000 340.561,165.280 340.400,164.400 340.400 C 163.520 340.400,162.800 340.220,162.800 340.000 C 162.800 339.780,162.080 339.600,161.200 339.600 C 160.320 339.600,159.600 339.420,159.600 339.200 C 159.600 338.980,158.970 338.800,158.200 338.800 C 157.430 338.800,156.800 338.620,156.800 338.400 C 156.800 338.180,156.350 338.000,155.800 338.000 C 155.250 338.000,154.800 337.820,154.800 337.600 C 154.800 337.380,154.350 337.200,153.800 337.200 C 153.250 337.200,152.800 337.020,152.800 336.800 C 152.800 336.580,152.260 336.400,151.600 336.400 C 150.940 336.400,150.400 336.220,150.400 336.000 C 150.400 335.780,149.860 335.600,149.200 335.600 C 148.540 335.600,148.000 335.420,148.000 335.200 C 148.000 334.980,147.651 334.800,147.224 334.800 C 146.797 334.800,146.336 334.620,146.200 334.400 C 146.064 334.180,145.513 334.000,144.976 334.000 C 144.439 334.000,144.000 333.820,144.000 333.600 C 144.000 333.380,143.640 333.200,143.200 333.200 C 142.760 333.200,142.400 333.020,142.400 332.800 C 142.400 332.580,142.040 332.400,141.600 332.400 C 141.160 332.400,140.800 332.220,140.800 332.000 C 140.800 331.780,140.440 331.600,140.000 331.600 C 139.560 331.600,139.200 331.420,139.200 331.200 C 139.200 330.980,138.935 330.800,138.612 330.800 C 138.289 330.800,137.383 330.440,136.600 330.000 C 135.817 329.560,134.911 329.200,134.588 329.200 C 134.265 329.200,134.000 329.020,134.000 328.800 C 134.000 328.580,133.640 328.400,133.200 328.400 C 132.760 328.400,132.400 328.220,132.400 328.000 C 132.400 327.780,132.040 327.600,131.600 327.600 C 131.160 327.600,130.800 327.453,130.800 327.274 C 130.800 327.094,129.720 326.431,128.400 325.800 C 127.080 325.169,126.000 324.506,126.000 324.326 C 126.000 324.147,125.640 324.000,125.200 324.000 C 124.760 324.000,124.400 323.820,124.400 323.600 C 124.400 323.380,124.212 323.200,123.983 323.200 C 123.754 323.200,123.180 322.840,122.708 322.400 C 122.236 321.960,121.613 321.600,121.325 321.600 C 121.036 321.600,120.800 321.420,120.800 321.200 C 120.800 320.980,120.557 320.800,120.259 320.800 C 119.962 320.800,119.154 320.260,118.463 319.600 C 117.772 318.940,117.008 318.400,116.764 318.400 C 116.520 318.400,115.817 317.860,115.200 317.200 C 114.583 316.540,113.863 316.000,113.600 316.000 C 113.337 316.000,112.617 315.460,112.000 314.800 C 111.383 314.140,110.663 313.600,110.400 313.600 C 110.137 313.600,109.444 313.100,108.860 312.489 C 108.277 311.879,106.903 310.664,105.806 309.789 C 104.710 308.915,102.603 306.985,101.126 305.500 C 99.648 304.015,98.244 302.800,98.007 302.800 C 97.769 302.800,97.454 302.485,97.307 302.101 C 97.159 301.717,95.860 300.229,94.419 298.795 C 92.979 297.361,91.085 295.290,90.211 294.194 C 89.336 293.097,88.121 291.723,87.511 291.140 C 86.900 290.556,86.400 289.863,86.400 289.600 C 86.400 289.337,85.860 288.617,85.200 288.000 C 84.540 287.383,84.000 286.663,84.000 286.400 C 84.000 286.137,83.460 285.417,82.800 284.800 C 82.140 284.183,81.600 283.480,81.600 283.236 C 81.600 282.992,81.060 282.228,80.400 281.537 C 79.740 280.846,79.200 280.038,79.200 279.741 C 79.200 279.443,79.020 279.200,78.800 279.200 C 78.580 279.200,78.400 278.964,78.400 278.675 C 78.400 278.387,78.040 277.764,77.600 277.292 C 77.160 276.820,76.800 276.246,76.800 276.017 C 76.800 275.788,76.620 275.600,76.400 275.600 C 76.180 275.600,76.000 275.240,76.000 274.800 C 76.000 274.360,75.853 274.000,75.674 274.000 C 75.494 274.000,74.831 272.920,74.200 271.600 C 73.569 270.280,72.906 269.200,72.726 269.200 C 72.547 269.200,72.400 268.840,72.400 268.400 C 72.400 267.960,72.220 267.600,72.000 267.600 C 71.780 267.600,71.600 267.240,71.600 266.800 C 71.600 266.360,71.420 266.000,71.200 266.000 C 70.980 266.000,70.800 265.735,70.800 265.412 C 70.800 265.089,70.440 264.183,70.000 263.400 C 69.560 262.617,69.200 261.711,69.200 261.388 C 69.200 261.065,69.020 260.800,68.800 260.800 C 68.580 260.800,68.400 260.440,68.400 260.000 C 68.400 259.560,68.220 259.200,68.000 259.200 C 67.780 259.200,67.600 258.840,67.600 258.400 C 67.600 257.960,67.420 257.600,67.200 257.600 C 66.980 257.600,66.800 257.240,66.800 256.800 C 66.800 256.360,66.620 256.000,66.400 256.000 C 66.180 256.000,66.000 255.561,66.000 255.024 C 66.000 254.487,65.820 253.936,65.600 253.800 C 65.380 253.664,65.200 253.203,65.200 252.776 C 65.200 252.349,65.020 252.000,64.800 252.000 C 64.580 252.000,64.400 251.460,64.400 250.800 C 64.400 250.140,64.220 249.600,64.000 249.600 C 63.780 249.600,63.600 249.060,63.600 248.400 C 63.600 247.740,63.420 247.200,63.200 247.200 C 62.980 247.200,62.800 246.750,62.800 246.200 C 62.800 245.650,62.620 245.200,62.400 245.200 C 62.180 245.200,62.000 244.750,62.000 244.200 C 62.000 243.650,61.820 243.200,61.600 243.200 C 61.380 243.200,61.200 242.570,61.200 241.800 C 61.200 241.030,61.020 240.400,60.800 240.400 C 60.580 240.400,60.400 239.680,60.400 238.800 C 60.400 237.920,60.220 237.200,60.000 237.200 C 59.780 237.200,59.600 236.480,59.600 235.600 C 59.600 234.720,59.439 234.000,59.242 234.000 C 58.885 234.000,58.812 233.648,58.010 228.000 C 57.775 226.350,57.407 224.232,57.192 223.294 C 56.976 222.356,56.800 220.792,56.800 219.818 C 56.800 218.844,56.620 217.936,56.400 217.800 C 56.173 217.660,56.000 215.670,56.000 213.200 C 56.000 210.730,55.827 208.740,55.600 208.600 C 55.059 208.266,55.059 191.734,55.600 191.400 C 55.827 191.260,56.000 189.270,56.000 186.800 C 56.000 184.330,56.173 182.340,56.400 182.200 C 56.620 182.064,56.800 181.156,56.800 180.182 C 56.800 179.208,56.976 177.644,57.192 176.706 C 57.407 175.768,57.775 173.650,58.010 172.000 C 58.812 166.352,58.885 166.000,59.242 166.000 C 59.439 166.000,59.600 165.280,59.600 164.400 C 59.600 163.520,59.780 162.800,60.000 162.800 C 60.220 162.800,60.400 162.080,60.400 161.200 C 60.400 160.320,60.580 159.600,60.800 159.600 C 61.020 159.600,61.200 158.970,61.200 158.200 C 61.200 157.430,61.380 156.800,61.600 156.800 C 61.820 156.800,62.000 156.350,62.000 155.800 C 62.000 155.250,62.180 154.800,62.400 154.800 C 62.620 154.800,62.800 154.350,62.800 153.800 C 62.800 153.250,62.980 152.800,63.200 152.800 C 63.420 152.800,63.600 152.260,63.600 151.600 C 63.600 150.940,63.780 150.400,64.000 150.400 C 64.220 150.400,64.400 149.860,64.400 149.200 C 64.400 148.540,64.580 148.000,64.800 148.000 C 65.020 148.000,65.200 147.651,65.200 147.224 C 65.200 146.797,65.380 146.336,65.600 146.200 C 65.820 146.064,66.000 145.513,66.000 144.976 C 66.000 144.439,66.180 144.000,66.400 144.000 C 66.620 144.000,66.800 143.640,66.800 143.200 C 66.800 142.760,66.980 142.400,67.200 142.400 C 67.420 142.400,67.600 142.040,67.600 141.600 C 67.600 141.160,67.780 140.800,68.000 140.800 C 68.220 140.800,68.400 140.440,68.400 140.000 C 68.400 139.560,68.580 139.200,68.800 139.200 C 69.020 139.200,69.200 138.935,69.200 138.612 C 69.200 138.289,69.560 137.383,70.000 136.600 C 70.440 135.817,70.800 134.911,70.800 134.588 C 70.800 134.265,70.980 134.000,71.200 134.000 C 71.420 134.000,71.600 133.640,71.600 133.200 C 71.600 132.760,71.780 132.400,72.000 132.400 C 72.220 132.400,72.400 132.040,72.400 131.600 C 72.400 131.160,72.547 130.800,72.726 130.800 C 72.906 130.800,73.569 129.720,74.200 128.400 C 74.831 127.080,75.494 126.000,75.674 126.000 C 75.853 126.000,76.000 125.640,76.000 125.200 C 76.000 124.760,76.180 124.400,76.400 124.400 C 76.620 124.400,76.800 124.212,76.800 123.983 C 76.800 123.754,77.160 123.180,77.600 122.708 C 78.040 122.236,78.400 121.613,78.400 121.325 C 78.400 121.036,78.580 120.800,78.800 120.800 C 79.020 120.800,79.200 120.557,79.200 120.259 C 79.200 119.962,79.740 119.154,80.400 118.463 C 81.060 117.772,81.600 117.008,81.600 116.764 C 81.600 116.520,82.140 115.817,82.800 115.200 C 83.460 114.583,84.000 113.863,84.000 113.600 C 84.000 113.337,84.540 112.617,85.200 112.000 C 85.860 111.383,86.400 110.663,86.400 110.400 C 86.400 110.137,86.900 109.444,87.511 108.860 C 88.121 108.277,89.336 106.903,90.211 105.806 C 91.085 104.710,92.979 102.639,94.419 101.205 C 95.860 99.771,97.159 98.283,97.307 97.899 C 97.454 97.515,97.769 97.200,98.007 97.200 C 98.244 97.200,99.648 95.985,101.126 94.500 C 102.603 93.015,104.710 91.085,105.806 90.211 C 106.903 89.336,108.277 88.121,108.860 87.511 C 109.444 86.900,110.137 86.400,110.400 86.400 C 110.663 86.400,111.383 85.860,112.000 85.200 C 112.617 84.540,113.337 84.000,113.600 84.000 C 113.863 84.000,114.583 83.460,115.200 82.800 C 115.817 82.140,116.520 81.600,116.764 81.600 C 117.008 81.600,117.772 81.060,118.463 80.400 C 119.154 79.740,119.962 79.200,120.259 79.200 C 120.557 79.200,120.800 79.020,120.800 78.800 C 120.800 78.580,121.036 78.400,121.325 78.400 C 121.613 78.400,122.236 78.040,122.708 77.600 C 123.180 77.160,123.754 76.800,123.983 76.800 C 124.212 76.800,124.400 76.620,124.400 76.400 C 124.400 76.180,124.760 76.000,125.200 76.000 C 125.640 76.000,126.000 75.853,126.000 75.674 C 126.000 75.494,127.080 74.831,128.400 74.200 C 129.720 73.569,130.800 72.906,130.800 72.726 C 130.800 72.547,131.160 72.400,131.600 72.400 C 132.040 72.400,132.400 72.220,132.400 72.000 C 132.400 71.780,132.760 71.600,133.200 71.600 C 133.640 71.600,134.000 71.420,134.000 71.200 C 134.000 70.980,134.265 70.800,134.588 70.800 C 134.911 70.800,135.817 70.440,136.600 70.000 C 137.383 69.560,138.289 69.200,138.612 69.200 C 138.935 69.200,139.200 69.020,139.200 68.800 C 139.200 68.580,139.560 68.400,140.000 68.400 C 140.440 68.400,140.800 68.220,140.800 68.000 C 140.800 67.780,141.160 67.600,141.600 67.600 C 142.040 67.600,142.400 67.420,142.400 67.200 C 142.400 66.980,142.760 66.800,143.200 66.800 C 143.640 66.800,144.000 66.620,144.000 66.400 C 144.000 66.180,144.439 66.000,144.976 66.000 C 145.513 66.000,146.064 65.820,146.200 65.600 C 146.336 65.380,146.797 65.200,147.224 65.200 C 147.651 65.200,148.000 65.020,148.000 64.800 C 148.000 64.580,148.540 64.400,149.200 64.400 C 149.860 64.400,150.400 64.220,150.400 64.000 C 150.400 63.780,150.940 63.600,151.600 63.600 C 152.260 63.600,152.800 63.420,152.800 63.200 C 152.800 62.980,153.250 62.800,153.800 62.800 C 154.350 62.800,154.800 62.620,154.800 62.400 C 154.800 62.180,155.250 62.000,155.800 62.000 C 156.350 62.000,156.800 61.820,156.800 61.600 C 156.800 61.380,157.430 61.200,158.200 61.200 C 158.970 61.200,159.600 61.020,159.600 60.800 C 159.600 60.580,160.320 60.400,161.200 60.400 C 162.080 60.400,162.800 60.220,162.800 60.000 C 162.800 59.780,163.520 59.600,164.400 59.600 C 165.280 59.600,166.000 59.439,166.000 59.242 C 166.000 58.885,166.352 58.812,172.000 58.010 C 173.650 57.775,175.768 57.407,176.706 57.192 C 177.644 56.976,179.208 56.800,180.182 56.800 C 181.156 56.800,182.064 56.620,182.200 56.400 C 182.340 56.173,184.330 56.000,186.800 56.000 C 189.270 56.000,191.260 55.827,191.400 55.600 C 191.552 55.354,194.863 55.200,200.000 55.200 C 205.137 55.200,208.448 55.354,208.600 55.600 M280.800 116.400 C 280.800 116.620,280.001 116.800,279.024 116.800 C 278.047 116.800,277.136 116.980,277.000 117.200 C 276.864 117.420,276.257 117.600,275.652 117.600 C 275.046 117.600,274.164 117.960,273.692 118.400 C 273.220 118.840,272.556 119.200,272.217 119.200 C 271.878 119.200,271.600 119.380,271.600 119.600 C 271.600 119.820,271.280 120.000,270.888 120.000 C 270.497 120.000,269.917 120.360,269.600 120.800 C 269.283 121.240,268.776 121.600,268.474 121.600 C 268.172 121.600,244.532 145.000,215.940 173.600 C 187.349 202.200,163.782 225.600,163.570 225.600 C 163.357 225.600,153.407 215.835,141.458 203.900 C 118.713 181.181,114.170 176.800,113.358 176.800 C 113.088 176.800,112.807 176.665,112.733 176.500 C 112.488 175.947,109.946 174.800,108.968 174.800 C 108.435 174.800,108.000 174.620,108.000 174.400 C 108.000 174.180,107.561 174.000,107.024 174.000 C 106.487 174.000,105.936 173.820,105.800 173.600 C 105.664 173.380,104.393 173.200,102.976 173.200 C 101.525 173.200,100.400 173.025,100.400 172.800 C 100.400 172.580,99.860 172.400,99.200 172.400 C 98.540 172.400,98.000 172.580,98.000 172.800 C 98.000 173.025,96.875 173.200,95.424 173.200 C 94.007 173.200,92.736 173.380,92.600 173.600 C 92.464 173.820,91.733 174.000,90.976 174.000 C 90.219 174.000,89.600 174.180,89.600 174.400 C 89.600 174.620,89.324 174.800,88.987 174.800 C 88.351 174.800,84.352 176.702,84.000 177.172 C 83.890 177.318,83.170 177.874,82.400 178.406 C 80.662 179.608,80.408 179.861,79.206 181.600 C 78.673 182.370,77.914 183.291,77.519 183.647 C 77.124 184.003,76.800 184.588,76.800 184.947 C 76.800 185.306,76.620 185.600,76.400 185.600 C 76.180 185.600,76.000 185.849,76.000 186.154 C 76.000 186.459,75.731 187.224,75.402 187.854 C 75.074 188.484,74.804 189.495,74.802 190.100 C 74.801 190.705,74.620 191.200,74.400 191.200 C 74.180 191.200,74.000 191.920,74.000 192.800 C 74.000 193.680,73.820 194.400,73.600 194.400 C 73.359 194.400,73.200 196.067,73.200 198.600 C 73.200 201.133,73.359 202.800,73.600 202.800 C 73.820 202.800,74.000 203.509,74.000 204.376 C 74.000 205.243,74.180 206.064,74.400 206.200 C 74.620 206.336,74.800 206.833,74.800 207.305 C 74.800 208.341,76.805 212.800,77.270 212.800 C 77.452 212.800,77.600 213.068,77.600 213.395 C 77.600 213.722,80.165 216.509,83.300 219.589 C 86.435 222.669,89.697 225.890,90.548 226.747 C 91.399 227.603,95.066 231.274,98.696 234.904 C 102.326 238.534,106.016 242.224,106.896 243.104 C 107.776 243.984,111.466 247.674,115.096 251.304 C 118.726 254.934,122.397 258.601,123.254 259.452 C 124.112 260.303,127.762 263.970,131.366 267.600 C 134.971 271.230,138.883 275.135,140.060 276.278 C 141.237 277.422,143.190 279.425,144.400 280.729 C 145.610 282.034,147.275 283.527,148.100 284.045 C 148.925 284.564,149.600 285.126,149.600 285.294 C 149.600 285.462,149.960 285.600,150.400 285.600 C 150.840 285.600,151.200 285.780,151.200 286.000 C 151.200 286.220,151.560 286.400,152.000 286.400 C 152.440 286.400,152.800 286.580,152.800 286.800 C 152.800 287.020,153.340 287.200,154.000 287.200 C 154.660 287.200,155.200 287.380,155.200 287.600 C 155.200 287.820,155.740 288.000,156.400 288.000 C 157.060 288.000,157.600 288.180,157.600 288.400 C 157.600 288.648,159.792 288.800,163.376 288.800 C 166.796 288.800,169.254 288.637,169.400 288.400 C 169.536 288.180,170.166 288.000,170.800 288.000 C 171.434 288.000,172.064 287.820,172.200 287.600 C 172.336 287.380,172.887 287.200,173.424 287.200 C 173.961 287.200,174.400 287.042,174.400 286.849 C 174.400 286.655,174.940 286.273,175.600 286.000 C 176.260 285.727,176.800 285.345,176.800 285.151 C 176.800 284.958,177.088 284.800,177.440 284.800 C 177.791 284.800,178.583 284.260,179.200 283.600 C 179.817 282.940,180.520 282.400,180.764 282.400 C 181.277 282.400,304.000 159.773,304.000 159.260 C 304.000 159.072,304.541 158.352,305.203 157.660 C 306.620 156.177,308.800 151.856,308.800 150.529 C 308.800 150.018,308.980 149.600,309.200 149.600 C 309.422 149.600,309.600 148.533,309.600 147.200 C 309.600 145.867,309.778 144.800,310.000 144.800 C 310.226 144.800,310.400 143.667,310.400 142.200 C 310.400 140.733,310.226 139.600,310.000 139.600 C 309.778 139.600,309.600 138.533,309.600 137.200 C 309.600 135.867,309.422 134.800,309.200 134.800 C 308.980 134.800,308.800 134.348,308.800 133.795 C 308.800 133.242,308.631 132.477,308.426 132.095 C 308.220 131.713,307.568 130.365,306.979 129.100 C 306.389 127.835,305.747 126.800,305.553 126.800 C 305.359 126.800,305.200 126.616,305.200 126.391 C 305.200 125.859,300.941 121.600,300.409 121.600 C 300.184 121.600,300.000 121.420,300.000 121.200 C 300.000 120.980,299.730 120.800,299.400 120.800 C 299.070 120.800,298.800 120.620,298.800 120.400 C 298.800 120.180,298.440 120.000,298.000 120.000 C 297.560 120.000,297.200 119.842,297.200 119.649 C 297.200 119.455,296.660 119.073,296.000 118.800 C 295.340 118.527,294.800 118.145,294.800 117.951 C 294.800 117.758,294.080 117.600,293.200 117.600 C 292.320 117.600,291.600 117.420,291.600 117.200 C 291.600 116.980,290.801 116.800,289.824 116.800 C 288.847 116.800,287.936 116.620,287.800 116.400 C 287.664 116.180,286.033 116.000,284.176 116.000 C 282.192 116.000,280.800 116.165,280.800 116.400 " stroke="none" fill="#040404" fill-rule="evenodd"></path><path id="path1" d="" stroke="none" fill="#080404" fill-rule="evenodd"></path><path id="path2" d="" stroke="none" fill="#080404" fill-rule="evenodd"></path><path id="path3" d="" stroke="none" fill="#080404" fill-rule="evenodd"></path><path id="path4" d="" stroke="none" fill="#080404" fill-rule="evenodd"></path></g></svg>